<svg xmlns="http://www.w3.org/2000/svg" viewBox="0 0 200 200" width="200" height="200">
  <defs>
    <linearGradient id="bg5" x1="0%" y1="0%" x2="100%" y2="100%">
      <stop offset="0%" stop-color="#1a1a2e"/>
      <stop offset="100%" stop-color="#0D0D0F"/>
    </linearGradient>
    <linearGradient id="reelGrad" x1="0%" y1="0%" x2="100%" y2="100%">
      <stop offset="0%" stop-color="#FF4D6A"/>
      <stop offset="50%" stop-color="#7B5CFF"/>
      <stop offset="100%" stop-color="#FF4D6A"/>
    </linearGradient>
  </defs>
  <circle cx="100" cy="100" r="100" fill="url(#bg5)"/>
  <!-- Outer reel -->
  <circle cx="100" cy="100" r="55" fill="none" stroke="url(#reelGrad)" stroke-width="4"/>
  <circle cx="100" cy="100" r="50" fill="none" stroke="#2a2a4e" stroke-width="1"/>
  <!-- Inner hub -->
  <circle cx="100" cy="100" r="16" fill="#2a2a4e" stroke="url(#reelGrad)" stroke-width="3"/>
  <circle cx="100" cy="100" r="6" fill="#0D0D0F"/>
  <!-- Spokes -->
  <line x1="100" y1="84" x2="100" y2="55" stroke="#7B5CFF" stroke-width="3" opacity="0.7"/>
  <line x1="100" y1="116" x2="100" y2="145" stroke="#7B5CFF" stroke-width="3" opacity="0.7"/>
  <line x1="84" y1="100" x2="55" y2="100" stroke="#FF4D6A" stroke-width="3" opacity="0.7"/>
  <line x1="116" y1="100" x2="145" y2="100" stroke="#FF4D6A" stroke-width="3" opacity="0.7"/>
  <line x1="89" y1="89" x2="68" y2="68" stroke="#7B5CFF" stroke-width="3" opacity="0.5"/>
  <line x1="111" y1="111" x2="132" y2="132" stroke="#7B5CFF" stroke-width="3" opacity="0.5"/>
  <line x1="111" y1="89" x2="132" y2="68" stroke="#FF4D6A" stroke-width="3" opacity="0.5"/>
  <line x1="89" y1="111" x2="68" y2="132" stroke="#FF4D6A" stroke-width="3" opacity="0.5"/>
  <!-- Sprocket holes around edge -->
  <circle cx="100" cy="48" r="5" fill="#1a1a2e" stroke="#7B5CFF" stroke-width="1"/>
  <circle cx="100" cy="152" r="5" fill="#1a1a2e" stroke="#7B5CFF" stroke-width="1"/>
  <circle cx="48" cy="100" r="5" fill="#1a1a2e" stroke="#FF4D6A" stroke-width="1"/>
  <circle cx="152" cy="100" r="5" fill="#1a1a2e" stroke="#FF4D6A" stroke-width="1"/>
  <circle cx="63" cy="63" r="5" fill="#1a1a2e" stroke="#7B5CFF" stroke-width="1"/>
  <circle cx="137" cy="137" r="5" fill="#1a1a2e" stroke="#7B5CFF" stroke-width="1"/>
  <circle cx="137" cy="63" r="5" fill="#1a1a2e" stroke="#FF4D6A" stroke-width="1"/>
  <circle cx="63" cy="137" r="5" fill="#1a1a2e" stroke="#FF4D6A" stroke-width="1"/>
  <!-- Film strip trailing off -->
  <path d="M148 115 Q160 120 165 130 Q170 140 162 148" fill="none" stroke="#FFAA2B" stroke-width="6" opacity="0.6"/>
  <rect x="160" y="126" width="4" height="3" rx="0.5" fill="#0D0D0F" opacity="0.5"/>
  <rect x="162" y="133" width="4" height="3" rx="0.5" fill="#0D0D0F" opacity="0.5"/>
  <rect x="161" y="140" width="4" height="3" rx="0.5" fill="#0D0D0F" opacity="0.5"/>
</svg>
