<svg xmlns="http://www.w3.org/2000/svg" viewBox="0 0 200 200" width="200" height="200">
  <defs>
    <linearGradient id="bg2" x1="0%" y1="0%" x2="100%" y2="100%">
      <stop offset="0%" stop-color="#1a1a2e"/>
      <stop offset="100%" stop-color="#0D0D0F"/>
    </linearGradient>
    <linearGradient id="cam" x1="0%" y1="0%" x2="0%" y2="100%">
      <stop offset="0%" stop-color="#7B5CFF"/>
      <stop offset="100%" stop-color="#5a3fd6"/>
    </linearGradient>
  </defs>
  <circle cx="100" cy="100" r="100" fill="url(#bg2)"/>
  <!-- Camera body -->
  <rect x="45" y="75" width="90" height="65" rx="8" fill="url(#cam)"/>
  <!-- Lens -->
  <circle cx="90" cy="107" r="22" fill="#0D0D0F" stroke="#9B80FF" stroke-width="3"/>
  <circle cx="90" cy="107" r="15" fill="#1a1a2e" stroke="#7B5CFF" stroke-width="2"/>
  <circle cx="90" cy="107" r="7" fill="#7B5CFF" opacity="0.4"/>
  <circle cx="85" cy="102" r="3" fill="#fff" opacity="0.3"/>
  <!-- Film reels on top -->
  <circle cx="65" cy="68" r="16" fill="#2a2a3e" stroke="#9B80FF" stroke-width="2"/>
  <circle cx="65" cy="68" r="5" fill="#7B5CFF" opacity="0.5"/>
  <line x1="65" y1="54" x2="65" y2="60" stroke="#9B80FF" stroke-width="1.5" opacity="0.5"/>
  <line x1="65" y1="76" x2="65" y2="82" stroke="#9B80FF" stroke-width="1.5" opacity="0.5"/>
  <line x1="51" y1="68" x2="57" y2="68" stroke="#9B80FF" stroke-width="1.5" opacity="0.5"/>
  <line x1="73" y1="68" x2="79" y2="68" stroke="#9B80FF" stroke-width="1.5" opacity="0.5"/>
  <circle cx="105" cy="68" r="16" fill="#2a2a3e" stroke="#9B80FF" stroke-width="2"/>
  <circle cx="105" cy="68" r="5" fill="#7B5CFF" opacity="0.5"/>
  <line x1="105" y1="54" x2="105" y2="60" stroke="#9B80FF" stroke-width="1.5" opacity="0.5"/>
  <line x1="105" y1="76" x2="105" y2="82" stroke="#9B80FF" stroke-width="1.5" opacity="0.5"/>
  <line x1="91" y1="68" x2="97" y2="68" stroke="#9B80FF" stroke-width="1.5" opacity="0.5"/>
  <line x1="113" y1="68" x2="119" y2="68" stroke="#9B80FF" stroke-width="1.5" opacity="0.5"/>
  <!-- Viewfinder -->
  <rect x="120" y="82" width="18" height="14" rx="3" fill="#5a3fd6"/>
  <rect x="123" y="85" width="12" height="8" rx="2" fill="#0D0D0F" opacity="0.6"/>
  <!-- Record light -->
  <circle cx="125" cy="130" r="4" fill="#FF4D6A"/>
  <circle cx="125" cy="130" r="6" fill="#FF4D6A" opacity="0.3"/>
  <!-- Handle -->
  <rect x="138" y="95" width="20" height="8" rx="4" fill="#5a3fd6"/>
</svg>
